# Blender 3.4.1
# www.blender.org
mtllib Facade.mtl
o FacadeR
v -1.000000 0.004115 0.054666
v -1.000000 5.518018 0.054666
v -1.000000 0.004115 -0.054666
v -1.000000 5.518018 -0.054666
v 1.000000 0.004115 0.054666
v 1.000000 5.518018 0.054666
v 1.000000 0.004115 -0.054666
v 1.000000 5.518018 -0.054666
v -0.695446 4.329502 -0.054666
v -0.709071 4.467835 -0.054666
v -0.695446 4.606168 -0.054666
v -0.655096 4.196486 -0.054666
v -0.655096 4.739185 -0.054666
v -0.589571 4.073896 -0.054666
v -0.501389 3.966446 -0.054666
v -0.501389 4.969224 -0.054666
v -0.271350 5.122931 -0.054666
v -0.393939 3.878264 -0.054666
v -0.393939 5.057406 -0.054666
v -0.271350 3.812739 -0.054666
v -0.589571 4.861773 -0.054666
v -0.138333 3.772389 -0.054666
v 0.138333 3.772389 -0.054666
v 0.138333 5.163281 -0.054666
v 0.000000 3.758764 -0.054666
v 0.000000 5.176906 -0.054666
v 0.393939 3.878264 -0.054666
v 0.393939 5.057406 -0.054666
v 0.589571 4.861773 -0.054666
v 0.655096 4.739185 -0.054666
v 0.501389 4.969224 -0.054666
v 0.271350 5.122931 -0.054666
v 0.271350 3.812739 -0.054666
v -0.138333 5.163281 -0.054666
v 0.589571 4.073896 -0.054666
v 0.501389 3.966446 -0.054666
v 0.709071 4.467835 -0.054666
v 0.695446 4.329502 -0.054666
v 0.695446 4.606168 -0.054666
v 0.655096 4.196486 -0.054666
v -0.589571 4.861773 0.054666
v -0.655096 4.739185 0.054666
v -0.393939 3.878264 0.054666
v -0.393939 5.057406 0.054666
v -0.501389 4.969224 0.054666
v -0.138333 3.772389 0.054666
v 0.000000 5.176906 0.054666
v 0.000000 3.758764 0.054666
v -0.138333 5.163281 0.054666
v -0.271350 3.812739 0.054666
v -0.271350 5.122931 0.054666
v 0.271350 3.812739 0.054666
v 0.271350 5.122931 0.054666
v 0.501389 3.966446 0.054666
v 0.501389 4.969224 0.054666
v 0.393939 3.878264 0.054666
v 0.393939 5.057406 0.054666
v 0.655096 4.196486 0.054666
v 0.709071 4.467835 0.054666
v 0.695446 4.329502 0.054666
v 0.695446 4.606168 0.054666
v 0.589571 4.073896 0.054666
v 0.655096 4.739185 0.054666
v 0.589571 4.861773 0.054666
v 0.138333 3.772389 0.054666
v 0.138333 5.163281 0.054666
v -0.709071 4.467835 0.054666
v -0.695446 4.606168 0.054666
v -0.695446 4.329502 0.054666
v -0.655096 4.196486 0.054666
v -0.501389 3.966446 0.054666
v -0.589571 4.073896 0.054666
vn -1.0000 -0.0000 -0.0000
vn -0.0000 -0.0000 -1.0000
vn 1.0000 -0.0000 -0.0000
vn -0.0000 -0.0000 1.0000
vn -0.0000 -1.0000 -0.0000
vn -0.0000 1.0000 -0.0000
vn -0.0980 -0.9952 -0.0000
vn -0.2903 -0.9569 -0.0000
vn -0.4714 -0.8819 -0.0000
vn -0.6344 -0.7730 -0.0000
vn -0.7730 -0.6344 -0.0000
vn -0.8819 -0.4714 -0.0000
vn -0.9569 -0.2903 -0.0000
vn -0.9952 -0.0980 -0.0000
vn -0.9952 0.0980 -0.0000
vn -0.9569 0.2903 -0.0000
vn -0.8819 0.4714 -0.0000
vn -0.7730 0.6344 -0.0000
vn -0.6344 0.7730 -0.0000
vn -0.4714 0.8819 -0.0000
vn -0.2903 0.9569 -0.0000
vn -0.0980 0.9952 -0.0000
vn 0.0980 0.9952 -0.0000
vn 0.2903 0.9569 -0.0000
vn 0.4714 0.8819 -0.0000
vn 0.6344 0.7730 -0.0000
vn 0.7730 0.6344 -0.0000
vn 0.8819 0.4714 -0.0000
vn 0.9569 0.2903 -0.0000
vn 0.9952 0.0980 -0.0000
vn 0.9952 -0.0980 -0.0000
vn 0.9569 -0.2903 -0.0000
vn 0.8819 -0.4714 -0.0000
vn 0.7730 -0.6344 -0.0000
vn 0.6344 -0.7730 -0.0000
vn 0.4714 -0.8819 -0.0000
vn 0.2903 -0.9569 -0.0000
vn 0.0980 -0.9952 -0.0000
vt 0.362720 0.000000
vt 0.765096 0.000000
vt 0.765096 1.000000
vt 0.362720 1.000000
vt 0.765096 0.725439
vt 0.745268 0.000000
vt 0.362720 0.000000
vt 0.784925 0.000000
vt 0.745268 1.000000
vt 0.362720 1.000000
vt 0.784925 0.725439
vt 0.725439 0.000000
vt 0.765096 0.362720
vt 0.725439 1.000000
vt 0.765096 0.362720
vt 0.000000 0.000000
vt 0.745268 0.000000
vt 0.784925 0.362720
vt 0.000000 1.000000
vt 0.745268 1.000000
vt 0.784925 0.362720
vt 0.307486 0.784451
vt 0.804753 0.247707
vt 0.309957 0.809539
vt 0.804753 0.272795
vt 0.307486 0.834627
vt 0.804753 0.297883
vt 0.300168 0.760327
vt 0.804753 0.223583
vt 0.300168 0.858751
vt 0.804753 0.322007
vt 0.288284 0.738095
vt 0.804753 0.201351
vt 0.272292 0.718607
vt 0.804753 0.545590
vt 0.804753 0.181864
vt 0.272292 0.900471
vt 0.804753 0.363727
vt 0.804753 0.545590
vt 0.230572 0.928347
vt 0.804753 0.587310
vt 0.252804 0.702615
vt 0.804753 0.526103
vt 0.252804 0.916464
vt 0.804753 0.565078
vt 0.230572 0.690731
vt 0.804753 0.503871
vt 0.288284 0.880984
vt 0.804753 0.344240
vt 0.206448 0.683413
vt 0.804753 0.479747
vt 0.156272 0.683413
vt 0.804753 0.429571
vt 0.156272 0.935665
vt 0.804753 0.661610
vt 0.181360 0.680942
vt 0.804753 0.454659
vt 0.181360 0.938136
vt 0.804753 0.636522
vt 0.109915 0.702615
vt 0.804753 0.383214
vt 0.109915 0.916464
vt 0.804753 0.707967
vt 0.074435 0.880984
vt 0.784925 0.162376
vt 0.062552 0.858751
vt 0.784925 0.140144
vt 0.090428 0.900471
vt 0.804753 0.727454
vt 0.784925 0.181864
vt 0.132148 0.928347
vt 0.804753 0.685734
vt 0.132148 0.690731
vt 0.804753 0.405447
vt 0.206448 0.935665
vt 0.804753 0.611434
vt 0.074435 0.738095
vt 0.784925 0.019487
vt 0.090428 0.718607
vt 0.784925 0.000000
vt 0.804753 0.363727
vt 0.052763 0.809539
vt 0.784925 0.090932
vt 0.055234 0.784451
vt 0.784925 0.065844
vt 0.055234 0.834627
vt 0.784925 0.116020
vt 0.062552 0.760327
vt 0.784925 0.041720
vt 0.437155 0.880984
vt 0.784925 0.344240
vt 0.425271 0.858751
vt 0.784925 0.322007
vt 0.472635 0.702615
vt 0.784925 0.526103
vt 0.472635 0.916464
vt 0.784925 0.565078
vt 0.453148 0.900471
vt 0.784925 0.363727
vt 0.784925 0.545590
vt 0.518991 0.683413
vt 0.784925 0.479747
vt 0.544079 0.938136
vt 0.784925 0.636522
vt 0.544079 0.680942
vt 0.784925 0.454659
vt 0.518991 0.935665
vt 0.784925 0.611434
vt 0.494867 0.690731
vt 0.784925 0.503871
vt 0.494867 0.928347
vt 0.784925 0.587310
vt 0.593291 0.690731
vt 0.784925 0.405447
vt 0.593291 0.928347
vt 0.784925 0.685734
vt 0.635011 0.718607
vt 0.804753 0.000000
vt 0.784925 0.363727
vt 0.635011 0.900471
vt 0.784925 0.727454
vt 0.804753 0.181864
vt 0.615524 0.702615
vt 0.784925 0.383214
vt 0.615524 0.916464
vt 0.784925 0.707967
vt 0.662887 0.760327
vt 0.804753 0.041720
vt 0.672676 0.809539
vt 0.804753 0.090932
vt 0.670205 0.784451
vt 0.804753 0.065844
vt 0.670205 0.834627
vt 0.804753 0.116020
vt 0.651004 0.738095
vt 0.804753 0.019487
vt 0.662887 0.858751
vt 0.804753 0.140144
vt 0.651004 0.880984
vt 0.804753 0.162376
vt 0.569167 0.683413
vt 0.784925 0.429571
vt 0.569167 0.935665
vt 0.784925 0.661610
vt 0.415482 0.809539
vt 0.784925 0.272795
vt 0.417953 0.834627
vt 0.784925 0.297883
vt 0.417953 0.784451
vt 0.784925 0.247707
vt 0.425271 0.760327
vt 0.784925 0.223583
vt 0.453148 0.718607
vt 0.784925 0.545590
vt 0.784925 0.181864
vt 0.437155 0.738095
vt 0.784925 0.201351
s 0
usemtl TRiche
f 1/2/1 2/3/1 4/9/1 3/6/1
f 16/37/2 4/10/2 8/19/2 31/68/2 28/62/2 32/71/2 24/54/2 26/58/2 34/75/2 17/40/2 19/44/2
f 31/68/2 8/19/2 7/16/2 3/7/2 4/10/2 16/37/2 21/48/2 13/30/2 11/26/2 10/24/2 9/22/2 12/28/2 14/32/2 15/34/2 18/42/2 20/46/2 22/50/2 25/56/2 23/52/2 33/73/2 27/60/2 36/79/2 35/77/2 40/88/2 38/84/2 37/82/2 39/86/2 30/66/2 29/64/2
f 7/17/3 8/20/3 6/14/3 5/12/3
f 2/4/4 1/1/4 5/12/4 6/14/4 55/120/4 64/139/4 63/137/4 61/133/4 59/129/4 60/131/4 58/127/4 62/135/4 54/117/4 56/123/4 52/113/4 65/141/4 48/105/4 46/101/4 50/109/4 43/94/4 71/153/4 72/156/4 70/151/4 69/149/4 67/145/4 68/147/4 42/92/4 41/90/4 45/98/4
f 55/120/4 6/14/4 2/4/4 45/98/4 44/96/4 51/111/4 49/107/4 47/103/4 66/143/4 53/115/4 57/125/4
f 3/8/5 7/18/5 5/13/5 1/2/5
f 8/21/6 4/11/6 2/5/6 6/15/6
usemtl 
f 26/59/7 24/55/7 66/144/7 47/104/7
f 24/55/8 32/72/8 53/116/8 66/144/8
f 32/72/9 28/63/9 57/126/9 53/116/9
f 28/63/10 31/69/10 55/121/10 57/126/10
f 55/122/11 31/70/11 29/65/11 64/140/11
f 64/140/12 29/65/12 30/67/12 63/138/12
f 63/138/13 30/67/13 39/87/13 61/134/13
f 61/134/14 39/87/14 37/83/14 59/130/14
f 59/130/15 37/83/15 38/85/15 60/132/15
f 60/132/16 38/85/16 40/89/16 58/128/16
f 58/128/17 40/89/17 35/78/17 62/136/17
f 62/136/18 35/78/18 36/80/18 54/118/18
f 54/119/19 36/81/19 27/61/19 56/124/19
f 56/124/20 27/61/20 33/74/20 52/114/20
f 52/114/21 33/74/21 23/53/21 65/142/21
f 65/142/22 23/53/22 25/57/22 48/106/22
f 48/106/23 25/57/23 22/51/23 46/102/23
f 46/102/24 22/51/24 20/47/24 50/110/24
f 50/110/25 20/47/25 18/43/25 43/95/25
f 43/95/26 18/43/26 15/35/26 71/154/26
f 15/36/27 14/33/27 72/157/27 71/155/27
f 14/33/28 12/29/28 70/152/28 72/157/28
f 12/29/29 9/23/29 69/150/29 70/152/29
f 9/23/30 10/25/30 67/146/30 69/150/30
f 10/25/31 11/27/31 68/148/31 67/146/31
f 68/148/32 11/27/32 13/31/32 42/93/32
f 13/31/33 21/49/33 41/91/33 42/93/33
f 21/49/34 16/38/34 45/99/34 41/91/34
f 16/39/35 19/45/35 44/97/35 45/100/35
f 19/45/36 17/41/36 51/112/36 44/97/36
f 17/41/37 34/76/37 49/108/37 51/112/37
f 34/76/38 26/59/38 47/104/38 49/108/38
